<svg width="44" height="44" viewBox="0 0 44 44" fill="none" xmlns="http://www.w3.org/2000/svg">
<rect width="44" height="44" rx="16" fill="#B9E0FF"/>
<path d="M34.8625 32.5012H33.025V19.3762C33.025 18.8789 32.8314 18.402 32.4868 18.0504C32.1422 17.6988 31.6748 17.5012 31.1875 17.5012H23.8375V11.8762C23.8377 11.5367 23.7476 11.2035 23.5767 10.9121C23.4058 10.6208 23.1606 10.3822 22.8673 10.222C22.5739 10.0617 22.2434 9.98577 21.9111 10.0022C21.5787 10.0186 21.257 10.1268 20.9802 10.3153L11.7927 16.5637C11.5407 16.7353 11.3341 16.9678 11.1914 17.2406C11.0488 17.5133 10.9744 17.8178 10.975 18.127V32.5012H9.1375C8.89383 32.5012 8.66014 32.6 8.48785 32.7758C8.31555 32.9516 8.21875 33.1901 8.21875 33.4387C8.21875 33.6874 8.31555 33.9258 8.48785 34.1016C8.66014 34.2775 8.89383 34.3762 9.1375 34.3762H34.8625C35.1062 34.3762 35.3399 34.2775 35.5122 34.1016C35.6845 33.9258 35.7812 33.6874 35.7812 33.4387C35.7812 33.1901 35.6845 32.9516 35.5122 32.7758C35.3399 32.6 35.1062 32.5012 34.8625 32.5012ZM31.1875 19.3762V32.5012H23.8375V19.3762H31.1875ZM12.8125 18.127L22 11.8762V32.5012H12.8125V18.127ZM20.1625 21.2512V23.1262C20.1625 23.3749 20.0657 23.6133 19.8934 23.7891C19.7211 23.9649 19.4874 24.0637 19.2437 24.0637C19.0001 24.0637 18.7664 23.9649 18.5941 23.7891C18.4218 23.6133 18.325 23.3749 18.325 23.1262V21.2512C18.325 21.0026 18.4218 20.7641 18.5941 20.5883C18.7664 20.4125 19.0001 20.3137 19.2437 20.3137C19.4874 20.3137 19.7211 20.4125 19.8934 20.5883C20.0657 20.7641 20.1625 21.0026 20.1625 21.2512ZM16.4875 21.2512V23.1262C16.4875 23.3749 16.3907 23.6133 16.2184 23.7891C16.0461 23.9649 15.8124 24.0637 15.5687 24.0637C15.3251 24.0637 15.0914 23.9649 14.9191 23.7891C14.7468 23.6133 14.65 23.3749 14.65 23.1262V21.2512C14.65 21.0026 14.7468 20.7641 14.9191 20.5883C15.0914 20.4125 15.3251 20.3137 15.5687 20.3137C15.8124 20.3137 16.0461 20.4125 16.2184 20.5883C16.3907 20.7641 16.4875 21.0026 16.4875 21.2512ZM16.4875 27.8137V29.6887C16.4875 29.9374 16.3907 30.1758 16.2184 30.3516C16.0461 30.5274 15.8124 30.6262 15.5687 30.6262C15.3251 30.6262 15.0914 30.5274 14.9191 30.3516C14.7468 30.1758 14.65 29.9374 14.65 29.6887V27.8137C14.65 27.5651 14.7468 27.3266 14.9191 27.1508C15.0914 26.975 15.3251 26.8762 15.5687 26.8762C15.8124 26.8762 16.0461 26.975 16.2184 27.1508C16.3907 27.3266 16.4875 27.5651 16.4875 27.8137ZM20.1625 27.8137V29.6887C20.1625 29.9374 20.0657 30.1758 19.8934 30.3516C19.7211 30.5274 19.4874 30.6262 19.2437 30.6262C19.0001 30.6262 18.7664 30.5274 18.5941 30.3516C18.4218 30.1758 18.325 29.9374 18.325 29.6887V27.8137C18.325 27.5651 18.4218 27.3266 18.5941 27.1508C18.7664 26.975 19.0001 26.8762 19.2437 26.8762C19.4874 26.8762 19.7211 26.975 19.8934 27.1508C20.0657 27.3266 20.1625 27.5651 20.1625 27.8137Z" fill="#0D6EFD"/>
</svg>
