<svg width="44" height="44" viewBox="0 0 44 44" fill="none" xmlns="http://www.w3.org/2000/svg">
<rect width="44" height="44" rx="16" fill="#F7DE90"/>
<path d="M34.67 16.3333C34.4726 16.1612 34.2285 16.0516 33.9687 16.0185C33.7089 15.9854 33.4452 16.0302 33.2109 16.1473L27.7192 18.8817L23.1342 11.2659C23.0164 11.0705 22.85 10.9089 22.6513 10.7966C22.4526 10.6844 22.2282 10.6255 22 10.6255C21.7718 10.6255 21.5474 10.6844 21.3487 10.7966C21.15 10.9089 20.9836 11.0705 20.8658 11.2659L16.2808 18.885L10.7912 16.1506C10.5576 16.0346 10.2948 15.9901 10.0359 16.0228C9.77707 16.0556 9.53365 16.164 9.3362 16.3346C9.13876 16.5052 8.99609 16.7303 8.9261 16.9816C8.85611 17.233 8.86193 17.4994 8.94281 17.7475L12.9897 30.1462C13.0304 30.2708 13.0985 30.3846 13.1891 30.4793C13.2797 30.574 13.3903 30.6472 13.513 30.6934C13.6356 30.7396 13.767 30.7576 13.8976 30.7462C14.0281 30.7348 14.1544 30.6943 14.2672 30.6275C14.2945 30.6111 17.0912 29 22 29C26.9087 29 29.7055 30.6111 29.7306 30.6264C29.8434 30.6938 29.9699 30.7349 30.1008 30.7467C30.2317 30.7585 30.3635 30.7407 30.4866 30.6946C30.6096 30.6485 30.7207 30.5752 30.8115 30.4803C30.9024 30.3854 30.9707 30.2712 31.0114 30.1462L35.0583 17.7508C35.1415 17.5026 35.149 17.2354 35.0798 16.9829C35.0107 16.7305 34.868 16.5044 34.67 16.3333ZM29.6562 28.6533C28.3437 28.0966 25.7275 27.25 22 27.25C18.2725 27.25 15.6562 28.0966 14.3437 28.6533L10.9214 18.1719L15.8509 20.6295C16.1493 20.7767 16.492 20.8068 16.8114 20.7138C17.1309 20.6209 17.404 20.4117 17.5769 20.1275L22 12.7753L26.4231 20.1253C26.5962 20.4091 26.8691 20.6179 27.1882 20.7108C27.5073 20.8037 27.8497 20.7739 28.148 20.6273L33.0786 18.1719L29.6562 28.6533ZM27.2358 25.1533C27.2001 25.3557 27.0942 25.5391 26.9368 25.6713C26.7794 25.8035 26.5805 25.876 26.375 25.8763C26.3237 25.8762 26.2725 25.8718 26.2219 25.8631C23.427 25.3833 20.5708 25.3833 17.7759 25.8631C17.5473 25.9034 17.3121 25.8513 17.122 25.7182C16.9318 25.5851 16.8023 25.3819 16.762 25.1533C16.7217 24.9247 16.7738 24.6895 16.907 24.4993C17.0401 24.3092 17.2433 24.1797 17.4719 24.1394C20.4679 23.6246 23.5299 23.6246 26.5259 24.1394C26.7541 24.1794 26.957 24.3083 27.0903 24.4978C27.2235 24.6872 27.2763 24.9218 27.2369 25.15L27.2358 25.1533Z" fill="#CF6D10"/>
</svg>
