<svg width="176" height="13" viewBox="0 0 176 13" fill="none" xmlns="http://www.w3.org/2000/svg">
<path d="M173.088 0.469788H175.437V12.393H173.088V0.469788Z" fill="#333333"/>
<path d="M160.786 0.469788H168.821V2.73779H165.921V12.393H163.572V2.73779H160.786V0.469788Z" fill="#333333"/>
<path d="M152.34 0.469788C153.085 0.469788 153.749 0.566988 154.333 0.761388C154.916 0.944988 155.402 1.21499 155.791 1.57139C156.19 1.91699 156.493 2.33819 156.698 2.83499C156.903 3.32099 157.006 3.87179 157.006 4.48739C157.006 4.97339 156.93 5.45939 156.779 5.94539C156.638 6.43139 156.401 6.87419 156.066 7.27379C155.742 7.67339 155.31 7.99739 154.77 8.24579C154.23 8.48339 153.56 8.60219 152.761 8.60219H151.076V12.393H148.727V0.469788H152.34ZM152.745 6.33419C153.101 6.33419 153.398 6.27479 153.636 6.15599C153.874 6.03719 154.057 5.88599 154.187 5.70239C154.327 5.51879 154.424 5.32979 154.478 5.13539C154.543 4.93019 154.576 4.74119 154.576 4.56839C154.576 4.43879 154.554 4.27679 154.511 4.08239C154.478 3.87719 154.403 3.67199 154.284 3.46679C154.165 3.26159 153.982 3.08879 153.733 2.94839C153.496 2.80799 153.172 2.73779 152.761 2.73779H151.076V6.33419H152.745ZM154.948 7.79219L157.897 12.393H155.159L152.146 7.85699L154.948 7.79219Z" fill="#333333"/>
<path d="M135.938 0.469788H144.07V2.73779H138.287V5.28119H143.406V7.54919H138.287V10.125H144.297V12.393H135.938V0.469788Z" fill="#333333"/>
<path d="M127.251 0.469788C128.234 0.469788 129.066 0.637188 129.746 0.971988C130.427 1.29599 130.945 1.76039 131.301 2.36519C131.658 2.95919 131.836 3.66659 131.836 4.48739C131.836 4.97339 131.76 5.46479 131.609 5.96159C131.469 6.44759 131.237 6.89039 130.913 7.28999C130.599 7.68959 130.173 8.01359 129.633 8.26199C129.104 8.49959 128.45 8.61839 127.673 8.61839H125.988V12.393H123.639V0.469788H127.251ZM127.656 6.33419C128.013 6.33419 128.31 6.27479 128.547 6.15599C128.785 6.02639 128.969 5.86979 129.098 5.68619C129.239 5.49179 129.336 5.29199 129.39 5.08679C129.455 4.88159 129.487 4.70339 129.487 4.55219C129.487 4.43339 129.465 4.27679 129.422 4.08239C129.39 3.87719 129.314 3.67199 129.195 3.46679C129.077 3.26159 128.893 3.08879 128.645 2.94839C128.407 2.80799 128.083 2.73779 127.673 2.73779H125.988V6.33419H127.656Z" fill="#333333"/>
<path d="M107.115 6.44761C107.115 5.62681 107.271 4.84921 107.584 4.11481C107.898 3.38041 108.33 2.73241 108.88 2.17081C109.442 1.59841 110.09 1.15021 110.824 0.82621C111.559 0.50221 112.347 0.34021 113.19 0.34021C114.021 0.34021 114.804 0.50221 115.539 0.82621C116.273 1.15021 116.921 1.59841 117.483 2.17081C118.055 2.73241 118.498 3.38041 118.811 4.11481C119.135 4.84921 119.297 5.62681 119.297 6.44761C119.297 7.29001 119.135 8.07841 118.811 8.81281C118.498 9.54721 118.055 10.1952 117.483 10.7568C116.921 11.3076 116.273 11.7396 115.539 12.0528C114.804 12.366 114.021 12.5226 113.19 12.5226C112.347 12.5226 111.559 12.366 110.824 12.0528C110.09 11.7396 109.442 11.3076 108.88 10.7568C108.33 10.1952 107.898 9.54721 107.584 8.81281C107.271 8.07841 107.115 7.29001 107.115 6.44761ZM109.545 6.44761C109.545 6.97681 109.636 7.47361 109.82 7.93801C110.014 8.39161 110.279 8.79661 110.614 9.15301C110.959 9.49861 111.354 9.76861 111.796 9.96301C112.25 10.1574 112.741 10.2546 113.271 10.2546C113.778 10.2546 114.248 10.1574 114.68 9.96301C115.123 9.76861 115.506 9.49861 115.83 9.15301C116.154 8.79661 116.408 8.39161 116.592 7.93801C116.775 7.47361 116.867 6.97681 116.867 6.44761C116.867 5.90761 116.77 5.40541 116.575 4.94101C116.392 4.47661 116.133 4.07161 115.798 3.72601C115.474 3.36961 115.09 3.09421 114.648 2.89981C114.205 2.70541 113.724 2.60821 113.206 2.60821C112.687 2.60821 112.207 2.70541 111.764 2.89981C111.321 3.09421 110.932 3.36961 110.598 3.72601C110.263 4.07161 110.004 4.47661 109.82 4.94101C109.636 5.40541 109.545 5.90761 109.545 6.44761Z" fill="#333333"/>
<path d="M98.7616 0.469788C99.5068 0.469788 100.171 0.566988 100.754 0.761388C101.337 0.944988 101.823 1.21499 102.212 1.57139C102.612 1.91699 102.914 2.33819 103.119 2.83499C103.325 3.32099 103.427 3.87179 103.427 4.48739C103.427 4.97339 103.352 5.45939 103.2 5.94539C103.06 6.43139 102.822 6.87419 102.488 7.27379C102.164 7.67339 101.732 7.99739 101.192 8.24579C100.652 8.48339 99.982 8.60219 99.1828 8.60219H97.498V12.393H95.149V0.469788H98.7616ZM99.1666 6.33419C99.523 6.33419 99.82 6.27479 100.058 6.15599C100.295 6.03719 100.479 5.88599 100.608 5.70239C100.749 5.51879 100.846 5.32979 100.9 5.13539C100.965 4.93019 100.997 4.74119 100.997 4.56839C100.997 4.43879 100.976 4.27679 100.932 4.08239C100.9 3.87719 100.824 3.67199 100.706 3.46679C100.587 3.26159 100.403 3.08879 100.155 2.94839C99.9172 2.80799 99.5932 2.73779 99.1828 2.73779H97.498V6.33419H99.1666ZM101.37 7.79219L104.318 12.393H101.58L98.5672 7.85699L101.37 7.79219Z" fill="#333333"/>
<path d="M86.4626 0.469788C87.4454 0.469788 88.277 0.637188 88.9574 0.971988C89.6378 1.29599 90.1562 1.76039 90.5126 2.36519C90.869 2.95919 91.0472 3.66659 91.0472 4.48739C91.0472 4.97339 90.9716 5.46479 90.8204 5.96159C90.68 6.44759 90.4478 6.89039 90.1238 7.28999C89.8106 7.68959 89.384 8.01359 88.844 8.26199C88.3148 8.49959 87.6614 8.61839 86.8838 8.61839H85.199V12.393H82.85V0.469788H86.4626ZM86.8676 6.33419C87.224 6.33419 87.521 6.27479 87.7586 6.15599C87.9962 6.02639 88.1798 5.86979 88.3094 5.68619C88.4498 5.49179 88.547 5.29199 88.601 5.08679C88.6658 4.88159 88.6982 4.70339 88.6982 4.55219C88.6982 4.43339 88.6766 4.27679 88.6334 4.08239C88.601 3.87719 88.5254 3.67199 88.4066 3.46679C88.2878 3.26159 88.1042 3.08879 87.8558 2.94839C87.6182 2.80799 87.2942 2.73779 86.8838 2.73779H85.199V6.33419H86.8676Z" fill="#333333"/>
<path d="M66.0886 0.469788C66.8338 0.469788 67.498 0.566988 68.0812 0.761388C68.6644 0.944988 69.1504 1.21499 69.5392 1.57139C69.9388 1.91699 70.2412 2.33819 70.4464 2.83499C70.6516 3.32099 70.7542 3.87179 70.7542 4.48739C70.7542 4.97339 70.6786 5.45939 70.5274 5.94539C70.387 6.43139 70.1494 6.87419 69.8146 7.27379C69.4906 7.67339 69.0586 7.99739 68.5186 8.24579C67.9786 8.48339 67.309 8.60219 66.5098 8.60219H64.825V12.393H62.476V0.469788H66.0886ZM66.4936 6.33419C66.85 6.33419 67.147 6.27479 67.3846 6.15599C67.6222 6.03719 67.8058 5.88599 67.9354 5.70239C68.0758 5.51879 68.173 5.32979 68.227 5.13539C68.2918 4.93019 68.3242 4.74119 68.3242 4.56839C68.3242 4.43879 68.3026 4.27679 68.2594 4.08239C68.227 3.87719 68.1514 3.67199 68.0326 3.46679C67.9138 3.26159 67.7302 3.08879 67.4818 2.94839C67.2442 2.80799 66.9202 2.73779 66.5098 2.73779H64.825V6.33419H66.4936ZM68.6968 7.79219L71.6452 12.393H68.9074L65.8942 7.85699L68.6968 7.79219Z" fill="#333333"/>
<path d="M47.8515 12.393L53.2299 0H53.3595L58.7379 12.393H56.0163L52.5819 3.6774L54.2829 2.511L50.1681 12.393H47.8515ZM51.5289 8.0838H55.1091L55.9353 10.0602H50.7999L51.5289 8.0838Z" fill="#333333"/>
<path d="M37.8589 0.469788H45.8941V2.73779H42.9943V12.393H40.6453V2.73779H37.8589V0.469788Z" fill="#333333"/>
<path d="M26.9553 0.469788H34.4073V2.73779H29.3043V5.44319H33.7269V7.71119H29.3043V12.393H26.9553V0.469788Z" fill="#333333"/>
<path d="M12.3308 12.393L17.7092 0H17.8388L23.2172 12.393H20.4956L17.0612 3.6774L18.7622 2.511L14.6474 12.393H12.3308ZM16.0082 8.0838H19.5884L20.4146 10.0602H15.2792L16.0082 8.0838Z" fill="#333333"/>
<path d="M0 12.393V0.469788H3.564C4.7628 0.469788 5.7834 0.647988 6.6258 1.00439C7.4682 1.36079 8.1432 1.83599 8.6508 2.42999C9.1692 3.02399 9.5472 3.68819 9.7848 4.42259C10.0224 5.15699 10.1412 5.89679 10.1412 6.64199C10.1412 7.52759 9.9792 8.32679 9.6552 9.03959C9.342 9.74159 8.91 10.3464 8.3592 10.854C7.8084 11.3508 7.1712 11.7342 6.4476 12.0042C5.724 12.2634 4.9572 12.393 4.1472 12.393H0ZM2.349 10.125H3.7422C4.3362 10.125 4.8762 10.0494 5.3622 9.89819C5.8482 9.73619 6.264 9.50399 6.6096 9.20159C6.966 8.89919 7.236 8.52119 7.4196 8.06759C7.614 7.60319 7.7112 7.07399 7.7112 6.47999C7.7112 5.70239 7.5816 5.07059 7.3224 4.58459C7.074 4.08779 6.7608 3.70439 6.3828 3.43439C6.0156 3.16439 5.6376 2.98079 5.2488 2.88359C4.86 2.77559 4.5306 2.72159 4.2606 2.72159H2.349V10.125Z" fill="#333333"/>
</svg>
