<svg width="44" height="44" viewBox="0 0 44 44" fill="none" xmlns="http://www.w3.org/2000/svg">
<rect width="44" height="44" rx="16" fill="#BEF4CA"/>
<path d="M20.7061 19.7141C21.0495 20.0567 21.5149 20.2491 22 20.2491C22.4851 20.2491 22.9505 20.0567 23.2939 19.7141L26.7141 16.2928C26.8839 16.123 27.0187 15.9214 27.1107 15.6994C27.2026 15.4775 27.2499 15.2397 27.2499 14.9995C27.2499 14.7592 27.2026 14.5214 27.1107 14.2995C27.0187 14.0775 26.8839 13.8759 26.7141 13.7061L23.2939 10.2848C22.9505 9.94221 22.4851 9.74979 22 9.74979C21.5149 9.74979 21.0495 9.94221 20.7061 10.2848L17.2859 13.7061C17.116 13.8759 16.9813 14.0775 16.8893 14.2995C16.7974 14.5214 16.7501 14.7592 16.7501 14.9995C16.7501 15.2397 16.7974 15.4775 16.8893 15.6994C16.9813 15.9214 17.116 16.123 17.2859 16.2928L20.7061 19.7141ZM18.5186 14.9431L21.9398 11.523C21.9544 11.5085 21.974 11.5004 21.9945 11.5004C22.015 11.5004 22.0347 11.5085 22.0492 11.523L25.4705 14.9431C25.4841 14.9581 25.4917 14.9776 25.4917 14.9978C25.4917 15.0181 25.4841 15.0376 25.4705 15.0525L22.0558 18.477C22.0411 18.4912 22.0215 18.4991 22.0011 18.4991C21.9807 18.4991 21.9611 18.4912 21.9464 18.477L18.523 15.0558C18.5083 15.0407 18.5001 15.0205 18.5002 14.9995C18.5001 14.9784 18.5083 14.9582 18.523 14.9431H18.5186ZM33.7108 20.7061L30.2939 17.2848C29.9506 16.9423 29.4855 16.7499 29.0005 16.7499C28.5156 16.7499 28.0504 16.9423 27.7072 17.2848L24.2859 20.7061C23.9433 21.0495 23.7509 21.5149 23.7509 22C23.7509 22.4851 23.9433 22.9505 24.2859 23.2939L27.7072 26.7152C28.0504 27.0577 28.5156 27.2501 29.0005 27.2501C29.4855 27.2501 29.9506 27.0577 30.2939 26.7152L33.7152 23.2939C34.0578 22.9505 34.2502 22.4851 34.2502 22C34.2502 21.5149 34.0578 21.0495 33.7152 20.7061H33.7108ZM32.4781 22.0558L29.0569 25.477C29.0419 25.4907 29.0224 25.4983 29.0022 25.4983C28.9819 25.4983 28.9624 25.4907 28.9475 25.477L25.5262 22.0558C25.5121 22.0411 25.5042 22.0215 25.5042 22.0011C25.5042 21.9807 25.5121 21.9611 25.5262 21.9464L28.9475 18.5252C28.9624 18.5115 28.9819 18.5039 29.0022 18.5039C29.0224 18.5039 29.0419 18.5115 29.0569 18.5252L32.4781 21.9464C32.4923 21.9611 32.5002 21.9807 32.5002 22.0011C32.5002 22.0215 32.4923 22.0411 32.4781 22.0558ZM19.7141 20.7061L16.2928 17.2848C15.9496 16.9423 15.4844 16.7499 14.9995 16.7499C14.5145 16.7499 14.0494 16.9423 13.7061 17.2848L10.2848 20.7061C9.94221 21.0495 9.74979 21.5149 9.74979 22C9.74979 22.4851 9.94221 22.9505 10.2848 23.2939L13.7061 26.7152C14.0494 27.0577 14.5145 27.2501 14.9995 27.2501C15.4844 27.2501 15.9496 27.0577 16.2928 26.7152L19.7141 23.2939C20.0567 22.9505 20.2491 22.4851 20.2491 22C20.2491 21.5149 20.0567 21.0495 19.7141 20.7061ZM18.477 22.0558L15.0558 25.477C15.0409 25.4907 15.0213 25.4983 15.0011 25.4983C14.9808 25.4983 14.9613 25.4907 14.9464 25.477L11.5219 22.0558C11.5077 22.0411 11.4998 22.0215 11.4998 22.0011C11.4998 21.9807 11.5077 21.9611 11.5219 21.9464L14.9431 18.523C14.9581 18.5093 14.9776 18.5017 14.9978 18.5017C15.0181 18.5017 15.0376 18.5093 15.0525 18.523L18.4737 21.9442C18.4813 21.9513 18.4874 21.9598 18.4917 21.9693C18.4959 21.9787 18.4983 21.989 18.4986 21.9993C18.4989 22.0097 18.4971 22.02 18.4934 22.0297C18.4897 22.0394 18.4842 22.0483 18.477 22.0558ZM23.2895 24.2859C22.9461 23.9433 22.4808 23.7509 21.9956 23.7509C21.5105 23.7509 21.0452 23.9433 20.7017 24.2859L17.2859 27.7072C17.116 27.877 16.9813 28.0786 16.8893 28.3006C16.7974 28.5225 16.7501 28.7603 16.7501 29.0005C16.7501 29.2408 16.7974 29.4786 16.8893 29.7005C16.9813 29.9225 17.116 30.1241 17.2859 30.2939L20.7061 33.7152C21.0495 34.0578 21.5149 34.2502 22 34.2502C22.4851 34.2502 22.9505 34.0578 23.2939 33.7152L26.7141 30.2939C26.8839 30.1241 27.0187 29.9225 27.1107 29.7005C27.2026 29.4786 27.2499 29.2408 27.2499 29.0005C27.2499 28.7603 27.2026 28.5225 27.1107 28.3006C27.0187 28.0786 26.8839 27.877 26.7141 27.7072L23.2895 24.2859ZM25.477 29.0569L22.0558 32.477C22.0412 32.4915 22.0216 32.4996 22.0011 32.4996C21.9806 32.4996 21.9609 32.4915 21.9464 32.477L18.523 29.0569C18.5093 29.0419 18.5017 29.0224 18.5017 29.0022C18.5017 28.9819 18.5093 28.9624 18.523 28.9475L21.9442 25.5263C21.9589 25.5121 21.9785 25.5042 21.9989 25.5042C22.0193 25.5042 22.0389 25.5121 22.0536 25.5263L25.4748 28.9475C25.4888 28.9622 25.4968 28.9815 25.4972 29.0018C25.4976 29.022 25.4904 29.0417 25.477 29.0569Z" fill="#1C9239"/>
</svg>
